<svg width="24" height="24" viewBox="0 0 24 24" fill="none" xmlns="http://www.w3.org/2000/svg">
<path fill-rule="evenodd" clip-rule="evenodd" d="M9.5 16.4999L12 13.9999L14.5 16.4999C14.7761 16.7761 15.2239 16.7761 15.5 16.4999C15.7761 16.2238 15.7761 15.7761 15.5 15.4999L12.7071 12.707C12.3166 12.3165 11.6834 12.3165 11.2929 12.707L8.5 15.4999C8.22386 15.7761 8.22386 16.2238 8.5 16.4999C8.77614 16.7761 9.22386 16.7761 9.5 16.4999ZM9.5 10.4999L12 7.99992L14.5 10.4999C14.7761 10.7761 15.2239 10.7761 15.5 10.4999C15.7761 10.2238 15.7761 9.77607 15.5 9.49992L12.7071 6.70703C12.3166 6.31651 11.6834 6.31651 11.2929 6.70703L8.5 9.49992C8.22386 9.77607 8.22386 10.2238 8.5 10.4999C8.77614 10.7761 9.22386 10.7761 9.5 10.4999Z" fill="#41F6D7"/>
</svg>
